<?xml version="1.0" standalone="no"?>
<!DOCTYPE svg PUBLIC "-//W3C//DTD SVG 20010904//EN"
 "http://www.w3.org/TR/2001/REC-SVG-20010904/DTD/svg10.dtd">
<svg version="1.0" xmlns="http://www.w3.org/2000/svg"
 width="700.000000pt" height="700.000000pt" viewBox="0 0 700.000000 700.000000"
 preserveAspectRatio="xMidYMid meet">
<metadata>
Created by potrace 1.11, written by Peter Selinger 2001-2013
</metadata>
<g transform="translate(0.000000,700.000000) scale(0.100000,-0.100000)"
fill="#000000" stroke="none">
<path d="M760 6948 c-1 -69 -1 -6884 0 -6920 l0 -28 2743 0 2742 0 0 2647 0
2648 -853 853 -852 852 -1890 0 -1890 0 0 -52z m3615 -999 l0 -816 800 -1
c440 0 808 -1 818 -1 16 -1 17 -125 17 -2449 l0 -2448 -2510 0 -2510 0 0 3266
0 3266 1692 0 1693 -1 0 -816z m1448 -579 c-9 -4 -1142 -5 -1200 -1 -10 1 -13
131 -13 615 l0 615 613 -612 c342 -342 607 -614 600 -617z"/>
<path d="M2117 6095 c-20 -7 -46 -23 -57 -36 -35 -42 -36 -56 -14 -225 5 -44
1 -64 -29 -140 -19 -49 -41 -116 -48 -149 -7 -33 -16 -62 -19 -65 -19 -16 -59
-80 -70 -113 -6 -21 -12 -78 -12 -127 0 -74 5 -97 27 -143 14 -31 42 -70 62
-88 23 -20 54 -67 81 -122 35 -72 60 -106 119 -164 41 -41 73 -76 72 -78 -2
-1 -65 -33 -141 -70 -161 -80 -214 -126 -264 -230 -19 -38 -34 -75 -34 -82 0
-31 261 -181 396 -228 278 -96 597 -93 867 9 129 49 250 118 331 188 l38 34
-37 74 c-55 109 -107 154 -273 239 -151 76 -149 74 -93 113 44 31 120 131 157
207 20 42 54 93 75 114 68 66 88 124 90 252 2 88 -33 180 -77 207 -7 5 -18 32
-24 60 -58 246 -274 407 -558 417 -31 1 -102 3 -157 4 -84 2 -109 6 -155 28
-30 15 -71 41 -90 59 -70 65 -103 76 -163 55z m288 -370 c28 -4 109 -9 181
-10 270 -4 385 -68 430 -240 8 -27 14 -64 14 -82 0 -23 8 -37 28 -52 53 -40
53 -41 50 -99 -3 -56 -4 -57 -45 -77 -40 -18 -43 -23 -68 -101 -42 -132 -112
-211 -229 -259 l-46 -19 3 -106 c5 -167 16 -180 259 -301 60 -30 108 -57 108
-61 0 -16 -199 -86 -295 -103 -114 -20 -262 -20 -378 0 -108 19 -317 99 -300
116 4 4 71 39 148 78 77 38 151 80 166 93 40 36 53 83 55 191 l1 98 -66 30
c-87 40 -150 106 -190 203 -17 41 -32 85 -34 98 -4 21 -15 30 -77 58 -16 7
-25 77 -16 115 3 13 19 28 36 35 32 13 35 20 45 100 7 54 59 225 74 245 5 5
14 27 20 47 12 38 12 38 44 24 18 -7 55 -17 82 -21z"/>
<path d="M1995 3486 c-75 -33 -90 -123 -31 -182 26 -26 42 -34 70 -34 51 0 90
23 110 64 17 37 16 63 -4 107 -21 46 -93 68 -145 45z"/>
<path d="M2572 3483 c-85 -42 -80 -162 8 -202 32 -14 103 -16 615 -15 319 1
595 3 614 5 20 2 45 14 61 31 49 48 48 117 -2 165 l-29 28 -617 2 c-555 3
-620 1 -650 -14z"/>
<path d="M4324 3484 c-80 -39 -84 -149 -7 -199 26 -17 58 -19 459 -19 458 0
477 2 508 49 28 43 29 87 4 125 -13 19 -35 40 -48 47 -19 10 -131 13 -455 13
-363 0 -435 -3 -461 -16z"/>
<path d="M2013 2912 c-52 -8 -94 -77 -85 -139 5 -32 56 -80 91 -85 16 -2 484
-4 1040 -4 l1011 1 31 31 c54 55 48 131 -14 178 -28 21 -29 21 -1040 21 -557
0 -1022 -1 -1034 -3z"/>
<path d="M4582 2909 c-43 -9 -70 -34 -83 -79 -20 -65 26 -135 91 -140 52 -4
69 1 98 30 82 81 7 214 -106 189z"/>
<path d="M5168 2912 c-36 -4 -85 -53 -89 -89 -7 -47 1 -71 31 -102 86 -86 227
0 190 115 -18 55 -70 84 -132 76z"/>
<path d="M2655 2294 c-179 -107 -302 -319 -331 -569 -4 -27 -8 -52 -10 -54 -2
-2 -36 23 -76 55 -92 76 -106 83 -148 84 -70 0 -135 -70 -123 -133 3 -15 22
-43 42 -62 89 -84 329 -278 358 -290 52 -22 118 -1 144 46 12 24 15 45 24 187
12 191 47 321 111 415 46 65 54 73 132 126 35 23 66 50 69 58 19 49 -4 125
-45 150 -47 28 -84 25 -147 -13z"/>
<path d="M3495 1848 c-122 -73 -210 -109 -284 -115 -86 -7 -127 6 -198 64 -67
55 -99 65 -142 47 -65 -28 -97 -104 -67 -162 23 -44 101 -108 175 -145 63 -30
71 -32 186 -31 109 0 129 3 215 33 52 17 105 39 118 47 53 34 68 35 104 3 43
-40 151 -91 191 -92 54 -1 105 10 285 61 l173 49 36 -24 c48 -32 90 -39 136
-20 50 21 77 67 67 114 -23 101 -185 195 -294 171 -21 -5 -91 -30 -155 -55
-183 -74 -271 -65 -331 32 -47 77 -115 84 -215 23z"/>
</g>
</svg>
